<?xml version="1.0" standalone="no"?>
<!DOCTYPE svg PUBLIC "-//W3C//DTD SVG 20010904//EN"
 "http://www.w3.org/TR/2001/REC-SVG-20010904/DTD/svg10.dtd">
<svg version="1.0" xmlns="http://www.w3.org/2000/svg"
 width="225.000000pt" height="225.000000pt" viewBox="0 0 225.000000 225.000000"
 preserveAspectRatio="xMidYMid meet">

<g transform="translate(0.000000,225.000000) scale(0.100000,-0.100000)"
fill="#000000" stroke="none">
<path d="M1439 1879 l-24 -20 28 17 c15 9 27 18 27 20 0 8 -8 4 -31 -17z"/>
<path d="M1390 1829 c-6 -11 -10 -25 -8 -30 2 -5 8 4 15 21 13 34 9 40 -7 9z"/>
<path d="M1673 1719 c-29 -17 -53 -33 -53 -36 0 -5 89 44 105 58 16 16 1 9
-52 -22z"/>
<path d="M1418 1683 c6 -2 18 -2 25 0 6 3 1 5 -13 5 -14 0 -19 -2 -12 -5z"/>
<path d="M1468 1673 c7 -3 16 -2 19 1 4 3 -2 6 -13 5 -11 0 -14 -3 -6 -6z"/>
<path d="M1564 1659 c-36 -16 -48 -17 -96 -7 -51 11 -56 10 -101 -16 -62 -37
-60 -43 3 -11 45 23 54 24 95 14 38 -10 53 -9 90 6 25 9 47 21 50 26 7 11 9
11 -41 -12z"/>
<path d="M1301 1633 c-35 -21 -79 -52 -98 -68 -31 -27 -36 -36 -35 -75 1 -25
9 -65 17 -90 10 -26 19 -90 22 -150 4 -94 2 -108 -16 -138 -12 -18 -32 -37
-46 -42 -34 -13 -82 6 -100 39 -8 14 -14 21 -15 14 0 -7 11 -24 24 -40 19 -22
32 -28 64 -28 51 0 88 32 103 89 15 53 5 165 -21 247 -23 73 -26 128 -7 151 6
9 48 39 92 68 44 28 82 53 84 56 12 11 -10 1 -68 -33z"/>
<path d="M1002 1290 c0 -14 2 -19 5 -12 2 6 2 18 0 25 -3 6 -5 1 -5 -13z"/>
<path d="M993 1210 c0 -30 2 -43 4 -27 2 15 2 39 0 55 -2 15 -4 2 -4 -28z"/>
<path d="M1253 1200 c0 -30 2 -43 4 -27 2 15 2 39 0 55 -2 15 -4 2 -4 -28z"/>
<path d="M1059 1188 c-12 -23 -12 -23 10 -4 23 21 26 26 11 26 -5 0 -15 -10
-21 -22z"/>
<path d="M1228 1102 l-17 -37 19 24 c11 13 20 29 20 37 0 21 -3 17 -22 -24z"/>
<path d="M1165 1034 l-30 -26 35 23 c45 29 45 29 34 29 -5 0 -22 -12 -39 -26z"/>
<path d="M1133 925 c0 -38 2 -53 4 -32 2 20 2 52 0 70 -2 17 -4 1 -4 -38z"/>
<path d="M1308 652 l-28 -3 0 -105 0 -104 38 2 c36 1 36 1 5 5 -32 4 -33 6
-33 53 0 42 3 49 23 53 l22 4 -22 2 c-20 1 -23 7 -23 40 0 37 2 40 33 43 17 2
28 5 22 8 -5 3 -22 4 -37 2z"/>
<path d="M917 568 c26 -162 36 -168 54 -37 13 98 23 99 33 4 14 -121 28 -126
46 -17 6 42 14 91 17 107 3 22 2 26 -5 16 -6 -8 -14 -42 -17 -75 -11 -94 -21
-95 -33 -5 -7 45 -14 85 -18 88 -10 11 -22 -23 -29 -83 -10 -95 -20 -96 -34
-1 -7 47 -16 85 -21 85 -4 0 -1 -37 7 -82z"/>
<path d="M1104 545 c0 -60 1 -84 3 -52 2 32 2 81 0 110 -2 29 -3 3 -3 -58z"/>
<path d="M1152 545 l2 -110 5 84 6 85 34 -82 c18 -45 35 -82 37 -82 2 0 3 48
2 108 l-2 107 -5 -85 -6 -85 -29 75 c-16 41 -33 79 -37 85 -5 5 -8 -39 -7
-100z"/>
</g>
</svg>
